# xmcd
#
# Track frame offsets:
# 183
# 12155
# 29403
# 48880
# 66948
# 84365
# 104130
# 123538
# 136380
# 160728
# 177768
# 193753
# 206955
# 222665
# 235520
# 251140
#
# Disc length: 3550 seconds
#
#
# Revision: 0
# Processed by: cddbd v1.5.1PL2 Copyright (c) Steve Scherf et al.
# Submitted via: FreeRIP 2.944 
#
DISCID=ea0ddc10
DTITLE=Various Artist - Sammy' Saloon - Trucker Songs
DYEAR=1991
DGENRE=Country
TTITLE0=Hallo, guten Morgen Deutschland - T. Astor, Löhmer
TTITLE1=Intercity Linie Nummer 4 - G. Gabriel, Thorsten
TTITLE2=Er ist ein Kerl (Der 30- Tonner Diesel) - G. Gabriel
TTITLE3=Komm' unter meine Decke - G. Gabriel
TTITLE4=Mein alter VW - G. Gabriel
TTITLE5=Mädchen ab 30 - G. Gabriel
TTITLE6=Mama , laß deinen Sohn nie Fernfahrer werden - Bruce, Gabriel
TTITLE7=Hey Boß, ich brauch mehr Geld - G. Gabriel
TTITLE8=Wenn ich nur ein Trucker wär - (Hardin/ Gabriel/ Holm)
TTITLE9=Temporausch - G. Gabriel
TTITLE10=Wir sind die Fahrer - G. Gabriel
TTITLE11=Ich fahre nie mehr blau - G. Gabriel, Tuxen
TTITLE12=Dieselknecht - G. Gabriel
TTITLE13=Ohne Moos nichts los - G. Gabriel
TTITLE14=Dankwart und Leila - G. Gabriel
TTITLE15=Ich werd' gesucht in Bremerhaven - G. Gabriel
EXTD=YEAR 1991
EXTT0=
EXTT1=
EXTT2=
EXTT3=
EXTT4=
EXTT5=
EXTT6=
EXTT7=
EXTT8=
EXTT9=
EXTT10=
EXTT11=
EXTT12=
EXTT13=
EXTT14=
EXTT15=
PLAYORDER=
